<svg width="160" height="144" viewBox="0 0 160 144" fill="none" xmlns="http://www.w3.org/2000/svg">
<path d="M79.9995 117.172C110.207 117.172 134.694 108.643 134.694 98.1223C134.694 87.6012 110.207 79.0723 79.9995 79.0723C49.7924 79.0723 25.3047 87.6012 25.3047 98.1223C25.3047 108.643 49.7924 117.172 79.9995 117.172Z" fill="#DDE0EF"/>
<path d="M81.7966 41.6877C81.6914 41.5614 81.5714 41.4457 81.4381 41.3417C80.967 40.9761 80.3299 40.7656 79.6233 40.7656C79.4055 40.7656 79.1773 40.7867 78.9462 40.8288C78.8336 40.8498 78.724 40.8761 78.6158 40.9051C78.604 40.9077 78.5921 40.9103 78.5803 40.9129C78.5358 40.9261 78.4914 40.9406 78.447 40.955C78.4292 40.9603 78.4099 40.9656 78.3921 40.9721C78.3196 40.9971 78.247 41.0234 78.1758 41.0511C78.1714 41.0524 78.167 41.055 78.164 41.0563C78.0662 41.0958 77.9714 41.1392 77.8781 41.1852C77.8721 41.1878 77.8677 41.1905 77.8618 41.1931C77.8396 41.2049 77.8188 41.2181 77.7966 41.2299C77.7388 41.2615 77.681 41.2931 77.6247 41.326C77.6144 41.3325 77.6025 41.3378 77.5921 41.3444C77.5699 41.3575 77.5492 41.3733 77.527 41.3878C77.481 41.418 77.4351 41.447 77.3892 41.4785C77.3758 41.4877 77.361 41.497 77.3462 41.5062C77.3284 41.5193 77.3107 41.5338 77.2929 41.5469C77.2499 41.5785 77.2084 41.6114 77.167 41.6443C77.1507 41.6574 77.1344 41.6693 77.1181 41.6824C77.087 41.7087 77.0558 41.735 77.0262 41.7626C76.9862 41.7995 76.9477 41.8363 76.9092 41.8731C76.8988 41.8823 76.8914 41.8929 76.881 41.9034C76.8366 41.9481 76.7936 41.9955 76.7521 42.0415C76.7373 42.0586 76.7196 42.0744 76.7062 42.0915C76.7018 42.0967 76.6988 42.102 76.6944 42.1073C76.6307 42.1822 76.5714 42.2598 76.5166 42.3401C76.5136 42.344 76.5107 42.3467 76.5077 42.3506C76.4692 42.4072 76.4321 42.465 76.3966 42.5229C76.3892 42.5347 76.3833 42.5479 76.3758 42.5597C76.3521 42.6018 76.327 42.6439 76.3062 42.686C76.3003 42.6965 76.2973 42.7071 76.2914 42.7176C76.281 42.7399 76.2707 42.7623 76.2603 42.786C76.2396 42.8307 76.2203 42.8754 76.2025 42.9201C76.1921 42.9438 76.1833 42.9688 76.1744 42.9925C76.1566 43.0398 76.1418 43.0859 76.127 43.1332C76.121 43.1556 76.1136 43.1766 76.1077 43.199C76.0884 43.2674 76.0721 43.3371 76.0603 43.4068C76.0262 43.5936 76.0144 43.7856 76.0307 43.9764L76.1077 44.9734L79.3107 48.8497L79.2336 47.8526C79.2173 47.6606 79.2292 47.4699 79.2633 47.2831C79.2751 47.2134 79.2929 47.1437 79.3107 47.0753C79.3166 47.0529 79.324 47.0319 79.3299 47.0095C79.3447 46.9622 79.3595 46.9148 79.3758 46.8688C79.3847 46.8451 79.3936 46.8201 79.404 46.7964C79.4218 46.7517 79.441 46.707 79.4618 46.6623C79.4721 46.6399 79.4825 46.6175 79.4929 46.5952C79.5196 46.5426 79.5477 46.49 79.5773 46.4373C79.5847 46.4255 79.5907 46.4124 79.5981 46.4005C79.6351 46.3387 79.6751 46.2769 79.7166 46.2164C79.7714 46.1374 79.8321 46.0598 79.8944 45.9836C79.9136 45.9612 79.9329 45.9401 79.9536 45.9178C79.9951 45.8704 80.0381 45.8244 80.0825 45.7797C80.1299 45.7323 80.1773 45.685 80.2277 45.6389C80.2736 45.5982 80.321 45.56 80.3684 45.5206C80.4099 45.4877 80.4514 45.4548 80.4944 45.4232C80.5255 45.3995 80.5581 45.3759 80.5907 45.3535C80.6351 45.3219 80.681 45.2917 80.7284 45.2628C80.761 45.2417 80.7921 45.2207 80.8262 45.2009C80.8825 45.168 80.9403 45.1365 80.9981 45.1049C81.0262 45.0904 81.0529 45.0747 81.081 45.0602C81.1744 45.0142 81.2692 44.9707 81.367 44.9313C81.4425 44.901 81.5181 44.8721 81.5966 44.8458C81.6144 44.8392 81.6336 44.834 81.6514 44.8287C81.7077 44.8103 81.764 44.7945 81.8218 44.7787C81.9299 44.7498 82.0396 44.7221 82.1521 44.7024C82.3833 44.6603 82.6114 44.6393 82.8292 44.6393C83.5373 44.6393 84.1744 44.8497 84.644 45.2154C84.7773 45.3193 84.8973 45.4337 85.0025 45.5613L81.7966 41.6877Z" fill="#B9BFDF"/>
<path d="M79.3095 49.1148C79.2176 49.1148 79.1272 49.0766 79.0709 49.0069L75.868 45.1293C75.8354 45.0885 75.8146 45.0412 75.8117 44.9912L75.7346 43.9942C75.7169 43.7916 75.7287 43.5785 75.7672 43.3641C75.7806 43.2931 75.7969 43.2194 75.8191 43.1366C75.8235 43.1195 75.8295 43.1024 75.8339 43.0853L75.8398 43.0655C75.8561 43.0142 75.8724 42.9616 75.8917 42.9116C75.9021 42.8853 75.9124 42.859 75.9228 42.8314C75.9421 42.7827 75.9628 42.7341 75.9865 42.6854L75.9939 42.6683C76.0028 42.6499 76.0117 42.6302 76.0206 42.6117L76.0369 42.5775C76.0591 42.5328 76.0843 42.4907 76.1095 42.4473L76.1361 42.4013C76.1732 42.3382 76.2132 42.275 76.2561 42.2132C76.2591 42.2079 76.268 42.1974 76.2724 42.1922C76.3228 42.1185 76.388 42.033 76.4576 41.9501C76.4576 41.9488 76.465 41.9409 76.4709 41.9317C76.4813 41.9199 76.4932 41.9067 76.5065 41.8936L76.5198 41.8791C76.5643 41.8278 76.6102 41.7778 76.6591 41.7292C76.6709 41.7147 76.6798 41.7055 76.6887 41.6976C76.7302 41.6568 76.7717 41.6174 76.8146 41.5779C76.8472 41.549 76.8798 41.52 76.9139 41.4924C76.9272 41.4819 76.9391 41.4714 76.9524 41.4621L76.9658 41.4516C77.0087 41.4161 77.0546 41.3806 77.1006 41.3464L77.1169 41.3332C77.1302 41.3227 77.1435 41.3122 77.1584 41.3017C77.1702 41.2938 77.1821 41.2859 77.1939 41.278C77.2517 41.2372 77.3021 41.2057 77.3524 41.1728L77.3717 41.1596C77.388 41.1478 77.4043 41.1373 77.4221 41.1267C77.4324 41.1202 77.4428 41.1149 77.4532 41.1083C77.5169 41.0702 77.5791 41.0373 77.6413 41.0031L77.6606 40.9926C77.6769 40.9834 77.6946 40.9728 77.7124 40.9636C77.7183 40.961 77.7317 40.9544 77.7376 40.9518C77.8309 40.9044 77.9346 40.8584 78.0369 40.8163C78.0369 40.8163 78.0502 40.8111 78.0502 40.8097C78.1272 40.7795 78.2058 40.7506 78.2843 40.7242C78.2976 40.7203 78.3124 40.715 78.3258 40.7111L78.3672 40.6979C78.4072 40.6848 78.4472 40.6729 78.4872 40.6611C78.5006 40.6572 78.5139 40.6545 78.5272 40.6519C78.6576 40.6164 78.7746 40.5901 78.8843 40.5703C79.1346 40.5256 79.3821 40.502 79.6206 40.502C80.3835 40.502 81.0976 40.7295 81.6309 41.1425C81.7806 41.2596 81.9169 41.3898 82.0324 41.5305L85.2339 45.4055L85.2354 45.4068C85.3317 45.5239 85.3035 45.6883 85.1717 45.7751C85.0398 45.8606 84.8546 45.8356 84.7569 45.7186C84.6665 45.6094 84.5613 45.5068 84.4428 45.416C84.0176 45.0859 83.4428 44.9044 82.8221 44.9044C82.6221 44.9044 82.4146 44.9241 82.2043 44.9623C82.1139 44.9794 82.0147 45.0017 81.9021 45.032C81.8487 45.0464 81.7969 45.0609 81.745 45.078L81.6946 45.0938C81.6235 45.1175 81.5524 45.1438 81.4843 45.1714C81.3969 45.2069 81.308 45.2464 81.2206 45.2911C81.2072 45.2977 81.1939 45.3056 81.1806 45.3134L81.145 45.3332C81.0917 45.3621 81.0383 45.391 80.9865 45.4213C80.9613 45.4358 80.9361 45.4516 80.9124 45.4673L80.8976 45.4765C80.8546 45.5042 80.8117 45.5318 80.7702 45.5607C80.7406 45.5818 80.7109 45.6028 80.6813 45.6252C80.6428 45.6541 80.6043 45.6844 80.5658 45.7159L80.5509 45.7278C80.5124 45.7593 80.4739 45.7909 80.4369 45.8238C80.3909 45.8659 80.3465 45.9093 80.3035 45.9527C80.2621 45.9948 80.2235 46.0369 80.185 46.0803L80.1613 46.1079C80.1509 46.1184 80.1406 46.1303 80.1317 46.1408C80.0724 46.2118 80.0176 46.2842 79.9672 46.3539C79.9287 46.4091 79.8917 46.4657 79.8576 46.5222L79.8398 46.5551C79.8132 46.6025 79.7865 46.6498 79.7628 46.6985L79.7332 46.7603C79.7139 46.8011 79.6961 46.8405 79.6798 46.8826C79.6709 46.905 79.6621 46.926 79.6546 46.9484C79.6398 46.9905 79.625 47.0339 79.6117 47.076L79.5939 47.1352C79.5776 47.197 79.5628 47.2588 79.5509 47.322C79.5198 47.4956 79.5109 47.6666 79.5243 47.831L79.6013 48.8293C79.6102 48.9464 79.5317 49.0543 79.4072 49.0937C79.3776 49.1095 79.3435 49.1148 79.3095 49.1148ZM76.3969 44.8807L78.945 47.9652L78.9376 47.8731C78.9198 47.6705 78.9317 47.4574 78.9702 47.243C78.9835 47.172 78.9998 47.097 79.0221 47.0155C79.0265 46.9984 79.0324 46.9813 79.0369 46.9642L79.0428 46.9431C79.0591 46.8918 79.0754 46.8405 79.0932 46.7892C79.1035 46.7629 79.1139 46.7353 79.1243 46.709C79.1435 46.6603 79.1658 46.6117 79.188 46.563L79.1969 46.5446C79.2058 46.5262 79.2146 46.5078 79.2235 46.4894C79.2517 46.4315 79.2828 46.3749 79.3154 46.3184L79.3376 46.2789C79.3776 46.2118 79.4206 46.1447 79.4665 46.0803C79.5243 45.9961 79.5895 45.9119 79.6591 45.8291C79.6724 45.812 79.6872 45.7962 79.7021 45.7791L79.7213 45.7567C79.7658 45.7054 79.8117 45.6554 79.8606 45.6068C79.9109 45.5555 79.9628 45.5042 80.0176 45.4555C80.0621 45.416 80.108 45.3779 80.1539 45.3411L80.1687 45.3292C80.2132 45.2937 80.2576 45.2582 80.3035 45.224C80.3376 45.199 80.3717 45.1727 80.4072 45.149C80.4546 45.1148 80.505 45.0833 80.5554 45.0517L80.5702 45.0425C80.5998 45.0228 80.6295 45.0043 80.6606 44.9859C80.7213 44.9504 80.7835 44.9162 80.8458 44.882L80.8739 44.8675C80.8947 44.857 80.9139 44.8452 80.9346 44.8347C81.0369 44.7834 81.1406 44.7373 81.2428 44.6952C81.3243 44.6624 81.4058 44.6321 81.4902 44.6032L81.5495 44.5848C81.6102 44.565 81.6709 44.5479 81.7332 44.5308C81.8635 44.4953 81.9806 44.469 82.0902 44.448C82.6739 44.3414 83.2384 44.3625 83.7509 44.4966L81.5584 41.8436C81.468 41.7331 81.3613 41.6318 81.2443 41.5411C80.8191 41.2109 80.2428 41.0294 79.6235 41.0294C79.4235 41.0294 79.2161 41.0491 79.0058 41.0873C78.9139 41.1044 78.8176 41.1267 78.7035 41.157C78.6917 41.1596 78.6798 41.1623 78.668 41.1649C78.6384 41.1728 78.6058 41.1833 78.5732 41.1938L78.4976 41.2175C78.4295 41.2399 78.3628 41.2648 78.2976 41.2912C78.1984 41.3319 78.1095 41.3727 78.0221 41.4161C78.0161 41.4187 78.0028 41.4253 77.9969 41.4279C77.9998 41.4266 77.9909 41.4319 77.985 41.4358C77.9732 41.4424 77.9598 41.4503 77.9465 41.4569C77.8917 41.4858 77.8384 41.5148 77.7865 41.545C77.7776 41.5503 77.7672 41.5555 77.7583 41.5608C77.748 41.5674 77.7406 41.5726 77.7332 41.5779L77.6976 41.6016C77.6546 41.6292 77.6117 41.6568 77.5702 41.6858C77.5613 41.6923 77.5509 41.6989 77.5406 41.7055L77.5139 41.7252C77.5035 41.7331 77.4932 41.7423 77.4813 41.7502C77.4428 41.7791 77.4043 41.8094 77.3658 41.8396L77.3198 41.8752C77.2917 41.8988 77.2635 41.9238 77.2354 41.9488C77.1984 41.9817 77.1628 42.0159 77.1272 42.0514C77.1169 42.0633 77.1095 42.0711 77.1006 42.079C77.0606 42.1198 77.0206 42.1632 76.9835 42.2053C76.9746 42.2158 76.9643 42.2264 76.9554 42.2356L76.9406 42.2513C76.9406 42.2513 76.9361 42.2579 76.9302 42.2645C76.8695 42.3368 76.8146 42.4079 76.7658 42.4789C76.7628 42.4828 76.7584 42.4894 76.7539 42.4934C76.7184 42.5447 76.6872 42.596 76.6561 42.6473L76.6369 42.6815C76.6132 42.7236 76.5924 42.7604 76.5732 42.7959L76.5317 42.8867C76.5124 42.9274 76.4946 42.9669 76.4783 43.009C76.4695 43.0313 76.4606 43.0537 76.4532 43.0747C76.4383 43.1168 76.4235 43.1602 76.4117 43.2023L76.3939 43.2615C76.3776 43.3233 76.3628 43.3852 76.3509 43.4483C76.3198 43.6219 76.3109 43.7929 76.3243 43.9573L76.3969 44.8807Z" fill="#DDE0EF"/>
<path d="M83.2493 47.2999L80.0463 43.4236C80.0123 43.3828 79.9737 43.3447 79.9308 43.3118C79.7767 43.1934 79.5723 43.125 79.3456 43.125C79.273 43.1263 79.2004 43.1329 79.1249 43.146C79.0849 43.1539 79.0448 43.1631 79.0063 43.1737C78.9945 43.1776 78.9841 43.1816 78.9723 43.1855C78.9545 43.1908 78.9382 43.1973 78.9219 43.2026C78.9071 43.2079 78.8908 43.2118 78.876 43.2184C78.8493 43.2289 78.8256 43.2407 78.8004 43.2526C78.7945 43.2552 78.7886 43.2578 78.7841 43.2605C78.7811 43.2618 78.7797 43.2631 78.7767 43.2644C78.7471 43.2789 78.7189 43.2947 78.6908 43.3118C78.6774 43.3197 78.6641 43.3289 78.6523 43.3381C78.6463 43.342 78.6389 43.3473 78.633 43.3512C78.6271 43.3552 78.6197 43.3591 78.6137 43.3631C78.5886 43.3815 78.5649 43.3999 78.5412 43.4196C78.5293 43.4288 78.5189 43.4394 78.5086 43.4486C78.4952 43.4604 78.4819 43.4736 78.4686 43.4854C78.4448 43.5078 78.4226 43.5328 78.4019 43.5564C78.4004 43.5577 78.3989 43.5604 78.3974 43.563C78.393 43.5683 78.39 43.5735 78.3856 43.5788C78.3693 43.5998 78.353 43.6196 78.3382 43.6419C78.3308 43.6524 78.3249 43.6643 78.3189 43.6748C78.31 43.6893 78.3011 43.7037 78.2923 43.7182C78.2863 43.7287 78.2789 43.7393 78.273 43.7498C78.2641 43.7682 78.2567 43.7879 78.2493 43.8063C78.2434 43.8195 78.2374 43.8326 78.2315 43.8471C78.2152 43.8905 78.2019 43.9339 78.1945 43.9787C78.1841 44.0392 78.1811 44.101 78.1856 44.1628L78.2478 44.9757L81.4508 48.852L81.3886 48.0391C81.3841 47.9773 81.3871 47.9154 81.3974 47.8549C81.4048 47.8102 81.4182 47.7668 81.4345 47.7234C81.4389 47.7103 81.4463 47.6971 81.4523 47.6826C81.4656 47.6524 81.4789 47.6234 81.4952 47.5945C81.5041 47.58 81.513 47.5656 81.5219 47.5511C81.5426 47.5182 81.5648 47.4866 81.59 47.4551C81.5945 47.4498 81.5974 47.4446 81.6019 47.4393C81.636 47.3998 81.6715 47.3604 81.7115 47.3249C81.75 47.2893 81.7915 47.2578 81.836 47.2262C81.8419 47.2223 81.8493 47.217 81.8552 47.2131C81.8967 47.1854 81.9411 47.1591 81.9871 47.1355C81.993 47.1328 81.9989 47.1302 82.0034 47.1276C82.0434 47.1091 82.0834 47.092 82.1263 47.0776C82.1426 47.071 82.1604 47.0657 82.1767 47.0605C82.2256 47.0447 82.276 47.0315 82.3293 47.021C82.4048 47.0079 82.4774 47.0013 82.55 47C82.7767 47 82.9811 47.0684 83.1352 47.1867C83.1767 47.2223 83.2152 47.2591 83.2493 47.2999Z" fill="#B9BFDF"/>
<path d="M81.4496 49.1138C81.3577 49.1138 81.2674 49.0756 81.2111 49.0059L78.0081 45.1283C77.9755 45.0876 77.9548 45.0402 77.9518 44.9902L77.8896 44.1773C77.8837 44.0945 77.8866 44.0129 77.9014 43.934C77.9118 43.8801 77.9266 43.8235 77.9488 43.7617C77.9548 43.7472 77.9607 43.7328 77.9666 43.7183L77.9755 43.6959C77.9829 43.6762 77.9918 43.6565 78.0007 43.6381C78.0066 43.6249 78.0155 43.6117 78.0229 43.5999C78.0348 43.5789 78.0451 43.5604 78.057 43.542C78.0659 43.5262 78.0733 43.5131 78.0822 43.5013C78.0999 43.475 78.1207 43.4486 78.1414 43.4237C78.1459 43.4171 78.1503 43.4105 78.1562 43.4039C78.1888 43.3658 78.2155 43.3355 78.2451 43.3079C78.2614 43.2921 78.2777 43.2763 78.294 43.2619C78.3059 43.2513 78.3207 43.2382 78.334 43.2264C78.3622 43.2027 78.3933 43.179 78.4229 43.1566C78.4274 43.154 78.4422 43.1435 78.4466 43.1409L78.4807 43.1172C78.4925 43.1093 78.5059 43.1001 78.5192 43.0922C78.5548 43.0711 78.5903 43.0514 78.6259 43.033C78.6318 43.0304 78.6407 43.0264 78.6466 43.0238L78.6585 43.0185C78.6866 43.0054 78.7177 42.9896 78.7503 42.9764C78.7666 42.9699 78.7829 42.9646 78.7992 42.9593C78.8288 42.9488 78.8496 42.9422 78.8718 42.9344C78.8866 42.9291 78.8999 42.9238 78.9148 42.9199C78.9637 42.9067 79.0125 42.8949 79.0629 42.8857C79.1533 42.8699 79.2422 42.8607 79.337 42.8594C79.6362 42.8594 79.9118 42.9488 80.1222 43.1106C80.1829 43.158 80.2363 43.2106 80.2822 43.2658L83.4837 47.1421C83.4837 47.1421 83.4837 47.1434 83.4851 47.1434C83.5814 47.2605 83.5533 47.4249 83.4214 47.5117C83.2896 47.5972 83.1044 47.5722 83.0066 47.4552C82.9859 47.4302 82.9622 47.4065 82.934 47.3854C82.8318 47.3065 82.694 47.2631 82.5444 47.2631C82.4911 47.2644 82.4348 47.2697 82.3814 47.2789C82.3518 47.2842 82.3162 47.2934 82.2688 47.3078C82.2555 47.3118 82.2422 47.317 82.2303 47.321C82.1992 47.3315 82.1681 47.3447 82.1385 47.3591C82.1355 47.3605 82.1237 47.3657 82.1207 47.367C82.094 47.3802 82.0614 47.3999 82.0259 47.4236L81.8303 47.225L82.0111 47.4328C81.974 47.4578 81.9444 47.4828 81.9162 47.5065C81.8866 47.5341 81.8585 47.563 81.8318 47.5946L81.8229 47.6064C81.8037 47.6301 81.7874 47.6538 81.7725 47.6788C81.7651 47.6893 81.7592 47.6998 81.7533 47.7116C81.7414 47.7327 81.7311 47.7537 81.7222 47.7748L81.7148 47.7919C81.697 47.8379 81.6881 47.8682 81.6837 47.8945C81.6762 47.9326 81.6748 47.976 81.6777 48.0194L81.7399 48.8323C81.7488 48.9494 81.6703 49.0572 81.5459 49.0967C81.5177 49.1085 81.4837 49.1138 81.4496 49.1138ZM78.537 44.8797L81.0896 47.9694C81.0896 47.9168 81.0955 47.8642 81.1044 47.8129C81.1148 47.759 81.1296 47.7024 81.1518 47.6406C81.1562 47.6261 81.1637 47.613 81.1696 47.5985C81.1903 47.5512 81.2081 47.513 81.2288 47.4762C81.2392 47.4578 81.2511 47.4394 81.2614 47.421C81.2881 47.3802 81.3163 47.3394 81.3474 47.2999C81.3518 47.2947 81.3577 47.2868 81.3637 47.2789C81.4051 47.2302 81.4511 47.1816 81.4999 47.1382C81.5444 47.0974 81.5963 47.0579 81.6525 47.0171C81.654 47.0158 81.6688 47.0066 81.6703 47.0053C81.7325 46.9645 81.7859 46.933 81.8407 46.9053C81.8451 46.9027 81.8585 46.8975 81.8629 46.8948C81.9103 46.8725 81.9607 46.8514 82.014 46.833C82.0348 46.8251 82.057 46.8185 82.0777 46.8106C82.1488 46.7883 82.2081 46.7738 82.2674 46.762C82.3192 46.7528 82.3696 46.7462 82.4229 46.7422L79.8081 43.5776C79.7874 43.5526 79.7637 43.5289 79.7355 43.5078C79.6333 43.4302 79.4955 43.3855 79.3459 43.3855C79.2925 43.3868 79.2362 43.3921 79.1829 43.4013C79.1548 43.4066 79.1251 43.4131 79.097 43.421C79.0911 43.4237 79.0807 43.4276 79.0718 43.4302C79.0585 43.4342 79.0466 43.4394 79.0333 43.4434L79.0037 43.4526C78.9785 43.4618 78.9592 43.471 78.9414 43.4802C78.9385 43.4815 78.9266 43.4868 78.9222 43.4881C78.9207 43.4894 78.9177 43.4907 78.9162 43.4907C78.897 43.5013 78.8762 43.5118 78.8585 43.5236L78.8288 43.5434L78.6333 43.3447L78.8155 43.5526C78.8125 43.5539 78.8007 43.5631 78.7977 43.5644C78.7814 43.5762 78.7622 43.5907 78.7444 43.6052L78.7192 43.6275C78.7074 43.6381 78.697 43.6473 78.6881 43.6565C78.6718 43.6723 78.657 43.688 78.6422 43.7051C78.6392 43.7078 78.6377 43.7104 78.6362 43.713C78.6348 43.7157 78.6288 43.7235 78.6259 43.7262C78.6125 43.742 78.6007 43.7564 78.5903 43.7722L78.5755 43.7972C78.5681 43.809 78.5622 43.8196 78.5562 43.8301L78.5177 43.9116C78.4999 43.9577 78.4911 43.9879 78.4866 44.0142C78.4792 44.0524 78.4777 44.0958 78.4807 44.1392L78.537 44.8797Z" fill="#DDE0EF"/>
<path d="M84.3782 47.4937C84.3737 47.4293 84.3634 47.3662 84.35 47.3043C84.35 47.3017 84.3485 47.2991 84.3471 47.2964C84.3308 47.228 84.3115 47.161 84.2848 47.0965C84.2626 47.0426 84.2374 46.99 84.2078 46.9387C84.2063 46.9347 84.2034 46.9321 84.2004 46.9281C84.193 46.915 84.1826 46.9018 84.1752 46.8887C84.1574 46.8611 84.1397 46.8321 84.1204 46.8058C84.1085 46.79 84.0952 46.7729 84.0819 46.7572L80.8789 42.8809C80.913 42.923 80.9426 42.9677 80.9722 43.0124C80.9811 43.0255 80.99 43.0374 80.9974 43.0519C81.03 43.1058 81.0582 43.1623 81.0819 43.2202C81.1085 43.2847 81.1278 43.3504 81.1441 43.4201C81.1589 43.4833 81.1693 43.549 81.1737 43.6161L81.2774 44.9736L84.4804 48.8498L84.3782 47.4937Z" fill="#F77A4A"/>
<path d="M84.4831 49.1144C84.3912 49.1144 84.3009 49.0762 84.2446 49.0065L81.0416 45.1289C81.009 45.0881 80.9883 45.0408 80.9853 44.9908L80.8816 43.6334C80.8772 43.5795 80.8698 43.5268 80.8564 43.4716C80.8431 43.4137 80.8268 43.3585 80.806 43.3085C80.7883 43.2638 80.766 43.2191 80.7379 43.173L80.7172 43.1428C80.6935 43.1059 80.6698 43.0691 80.6431 43.0375V43.0362C80.5468 42.9192 80.5749 42.7547 80.7068 42.6679C80.8386 42.5824 81.0238 42.6074 81.1216 42.7245L81.1231 42.7258L84.3246 46.6008C84.3409 46.6192 84.3557 46.6389 84.3705 46.6587C84.3912 46.685 84.409 46.7139 84.4268 46.7415L84.4372 46.7573C84.449 46.7744 84.4564 46.7862 84.4638 46.7981C84.4683 46.8047 84.4727 46.8125 84.4757 46.8165C84.5112 46.8783 84.5423 46.9415 84.569 47.0059C84.5986 47.0782 84.6223 47.1545 84.6416 47.2348C84.6431 47.2427 84.646 47.2492 84.6475 47.2558C84.6623 47.3242 84.6742 47.3992 84.6786 47.4742L84.7823 48.8316C84.7912 48.9486 84.7127 49.0565 84.5883 49.096C84.5512 49.1091 84.5172 49.1144 84.4831 49.1144ZM81.5705 44.8803L84.1186 47.9648L84.0846 47.5123C84.0801 47.4623 84.0742 47.4123 84.0638 47.365C84.0623 47.3597 84.0609 47.3545 84.0594 47.3505C84.046 47.2926 84.0297 47.2387 84.009 47.1887C83.9927 47.1466 83.972 47.1059 83.9497 47.0677C83.9468 47.0625 83.9423 47.0559 83.9409 47.0533L83.9083 47.0033C83.8979 46.9875 83.8875 46.9704 83.8772 46.9559C83.8668 46.9428 83.8564 46.9296 83.846 46.9178L81.5112 44.0911L81.5705 44.8803Z" fill="#DDE0EF"/>
<path d="M62.965 44.9746H75.1146L75.4124 48.8496L61.8242 51.3211L62.965 44.9746Z" fill="#DDE0EF"/>
<path d="M61.8232 51.5849C61.7477 51.5849 61.6736 51.5586 61.6188 51.5125C61.5491 51.4533 61.5151 51.3665 61.5314 51.281L62.6721 44.9332C62.6943 44.8056 62.8188 44.7109 62.9654 44.7109H75.1151C75.2706 44.7109 75.3995 44.8175 75.4114 44.9556L75.7091 48.8306C75.7195 48.9621 75.6188 49.0792 75.4736 49.1068L61.8854 51.5796C61.8632 51.5836 61.8425 51.5849 61.8232 51.5849ZM63.2158 45.2384L62.1832 50.989L75.0973 48.6385L74.8366 45.2384H63.2158Z" fill="#DDE0EF"/>
<path d="M75.4124 48.8496L78.6153 52.7259L65.0272 55.1987L61.8242 51.3211L75.4124 48.8496Z" fill="#787070"/>
<path d="M65.0261 55.4627C64.9327 55.4627 64.8438 55.4233 64.7875 55.3549L61.5846 51.4773C61.5253 51.4049 61.5105 51.3102 61.5475 51.2273C61.5846 51.1432 61.6661 51.0827 61.7638 51.0642L75.352 48.5914C75.4646 48.5704 75.5816 48.6111 75.6498 48.694L78.8527 52.5716C78.912 52.644 78.9268 52.7387 78.8898 52.8215C78.8527 52.9057 78.7712 52.9662 78.6735 52.9846L65.0853 55.4575C65.0661 55.4614 65.0453 55.4627 65.0261 55.4627ZM62.3357 51.4983L65.1535 54.909L78.1031 52.5532L75.2853 49.1425L62.3357 51.4983Z" fill="#DDE0EF"/>
<path d="M77.5442 57.5475C77.2331 57.3055 77.0316 56.9635 77.0005 56.5531L76.3945 48.669L77.5234 48.4638L77.8301 52.4467C77.8449 52.6413 78.0212 52.7742 78.2449 52.7742C78.279 52.7742 78.3145 52.7716 78.3516 52.7637C78.6227 52.7137 78.8286 52.4927 78.8108 52.2678L78.5042 48.2849L80.5175 47.918L81.1249 55.8021C81.1338 55.9297 81.1264 56.0546 81.1042 56.1796C81.0316 56.5808 80.8005 56.9622 80.4656 57.266C80.1279 57.5699 79.6893 57.7948 79.1945 57.8856C79.0434 57.9119 78.8923 57.9263 78.7471 57.9263C78.2775 57.9277 77.8568 57.7895 77.5442 57.5475Z" fill="#1E2F97"/>
<path d="M78.7428 58.191C78.2154 58.191 77.7206 58.0332 77.3488 57.7465L77.3473 57.7451C76.9621 57.4453 76.7399 57.0388 76.7043 56.5719L76.0984 48.6878C76.088 48.5562 76.1888 48.4392 76.3339 48.4115L77.4628 48.2063C77.5458 48.1906 77.6332 48.209 77.7013 48.255C77.7695 48.3011 77.8125 48.3708 77.8169 48.4471L78.1236 52.4299C78.1295 52.5035 78.2095 52.5114 78.2436 52.5114C78.2584 52.5114 78.2747 52.5101 78.291 52.5075C78.4273 52.4825 78.5206 52.3707 78.5147 52.2878L78.208 48.305C78.1976 48.1735 78.2984 48.0564 78.4436 48.0288L80.4569 47.6618C80.5414 47.646 80.6273 47.6644 80.6954 47.7105C80.7636 47.7565 80.8065 47.8262 80.811 47.9025L81.4184 55.7866C81.4288 55.9339 81.4199 56.0812 81.3947 56.2233C81.3147 56.6679 81.0584 57.1046 80.6747 57.4531C80.2806 57.807 79.7888 58.0464 79.2525 58.1463C79.0791 58.1766 78.9088 58.191 78.7428 58.191ZM77.7369 57.3505C78.0895 57.6215 78.6021 57.7254 79.1325 57.6307C79.5532 57.5531 79.9399 57.3637 80.251 57.0848C80.5488 56.8152 80.7473 56.4798 80.808 56.1418C80.8273 56.0365 80.8332 55.93 80.8258 55.8221L80.2421 48.2405L78.8154 48.4997L79.1043 52.2536C79.1325 52.6101 78.8258 52.9481 78.4095 53.0244C78.3547 53.0349 78.2984 53.0402 78.2436 53.0402C77.8569 53.0402 77.5591 52.7995 77.5325 52.468L77.2495 48.7851L76.7073 48.8837L77.2954 56.5377C77.3206 56.8626 77.4732 57.144 77.7369 57.3505Z" fill="#DDE0EF"/>
<path d="M76.1094 44.9766H77.2546L77.5227 48.4675L76.3938 48.6727L76.1094 44.9766Z" fill="#DDE0EF"/>
<path d="M76.3925 48.9351C76.3288 48.9351 76.2651 48.9167 76.2132 48.8812C76.1451 48.8352 76.1021 48.7654 76.0977 48.6891L75.8132 44.9931C75.8073 44.9207 75.837 44.8484 75.8918 44.7958C75.9481 44.7431 76.0266 44.7129 76.1081 44.7129H77.2518C77.4073 44.7129 77.5362 44.8194 77.5481 44.9575L77.8162 48.4484C77.8266 48.58 77.7258 48.697 77.5806 48.7247L76.4518 48.9299C76.4325 48.9338 76.4132 48.9351 76.3925 48.9351ZM76.4251 45.239L76.6651 48.3537L77.2073 48.2551L76.9747 45.239H76.4251Z" fill="#DDE0EF"/>
<path d="M86.6242 49.1149C86.5323 49.1149 86.442 49.0767 86.3857 49.007L83.1827 45.1294C83.1501 45.0886 83.1294 45.0413 83.1264 44.9913L82.9486 42.6816C82.9442 42.6171 82.9368 42.554 82.9264 42.4908L82.916 42.4316C82.9086 42.3909 82.9012 42.3488 82.8923 42.308C82.8835 42.2672 82.8716 42.2278 82.8597 42.1883L82.8405 42.1173C82.8212 42.0555 82.799 41.9936 82.7738 41.9344C82.7383 41.8489 82.6953 41.7595 82.6405 41.6622L82.6212 41.6267C82.5783 41.5543 82.5309 41.4807 82.4775 41.4096C82.4464 41.3675 82.4212 41.3333 82.3931 41.3005C82.2968 41.1834 82.3249 41.019 82.4568 40.9322C82.5101 40.898 82.5709 40.8809 82.6316 40.8809C82.7235 40.8809 82.8123 40.9177 82.8701 40.9887L86.0731 44.8663C86.1027 44.9018 86.1309 44.9387 86.159 44.9755C86.1635 44.9821 86.1753 44.9992 86.1798 45.0057C86.2375 45.0847 86.2953 45.1702 86.3442 45.2543C86.3501 45.2622 86.3546 45.2701 86.359 45.2793C86.3634 45.2872 86.3694 45.2991 86.3753 45.3122C86.4375 45.4214 86.4894 45.5293 86.5323 45.6332C86.562 45.7055 86.5886 45.7792 86.6123 45.8541C86.6183 45.8726 86.6227 45.8897 86.6272 45.9081L86.6331 45.9317C86.6479 45.9817 86.6612 46.0317 86.6731 46.0843C86.6731 46.0856 86.676 46.0935 86.6775 46.1014C86.6849 46.133 86.6909 46.1659 86.6953 46.1988C86.6953 46.1988 86.7116 46.2856 86.7131 46.3027C86.7249 46.3763 86.7323 46.4513 86.7383 46.5276L86.916 48.836C86.9249 48.9531 86.8464 49.0609 86.722 49.1004C86.6923 49.1096 86.6583 49.1149 86.6242 49.1149Z" fill="#B9BFDF"/>
<path d="M82.6309 41.1457L85.8338 45.0233C85.8605 45.0562 85.8872 45.0891 85.9123 45.1233C85.9183 45.1299 85.9212 45.1378 85.9272 45.1443C85.9834 45.2219 86.0368 45.3009 86.0857 45.3837C86.0886 45.389 86.0916 45.3929 86.0946 45.3982C86.099 45.4061 86.102 45.4153 86.1079 45.4245C86.1627 45.5218 86.2131 45.6205 86.2546 45.7244C86.2812 45.7902 86.3049 45.8586 86.3272 45.927C86.3346 45.9506 86.3405 45.9743 86.3464 45.998C86.3597 46.044 86.3731 46.0901 86.3835 46.1374C86.3849 46.1427 86.3864 46.1479 86.3879 46.1532C86.3968 46.1927 86.4027 46.2321 86.4101 46.2716C86.4146 46.2939 86.419 46.315 86.422 46.3373C86.4323 46.4057 86.4397 46.4741 86.4457 46.5438L86.6234 48.8536L83.4205 44.9773L83.2427 42.6676C83.2368 42.5978 83.2294 42.5281 83.219 42.4611C83.216 42.4387 83.2101 42.4176 83.2072 42.3953C83.1997 42.3506 83.1909 42.3058 83.182 42.2611C83.1716 42.2138 83.1583 42.1677 83.1449 42.1217C83.1375 42.098 83.1331 42.0743 83.1257 42.052C83.1035 41.9836 83.0797 41.9152 83.0531 41.8494C83.0101 41.7455 82.9612 41.6469 82.9064 41.5495C82.899 41.5364 82.8916 41.5232 82.8842 41.5101C82.8353 41.4272 82.782 41.3483 82.7257 41.2707C82.6931 41.226 82.6635 41.1852 82.6309 41.1457ZM83.1094 40.834L82.6309 41.1457L82.1523 41.4575C82.1775 41.4877 82.2012 41.5193 82.2235 41.5508C82.2738 41.6206 82.3183 41.685 82.3553 41.7481L82.3597 41.756L82.3731 41.781C82.4235 41.8705 82.462 41.9494 82.4931 42.0257C82.5138 42.0783 82.5346 42.1335 82.5523 42.1914C82.5538 42.198 82.5553 42.2046 82.5583 42.2111C82.5612 42.2243 82.5657 42.2361 82.5686 42.2493C82.5805 42.2887 82.5909 42.3269 82.5997 42.3637C82.6086 42.3992 82.6146 42.4361 82.6205 42.4742L82.6264 42.5097C82.6279 42.5163 82.6294 42.5229 82.6294 42.5295C82.6383 42.59 82.6442 42.6465 82.6486 42.7018L82.8264 45.0115C82.8338 45.1115 82.8738 45.2062 82.9405 45.2864L86.1435 49.1627C86.2575 49.3008 86.4368 49.3771 86.622 49.3771C86.6901 49.3771 86.7583 49.3666 86.8249 49.3455C87.0723 49.2653 87.2309 49.0496 87.2131 48.8154L87.0353 46.5057C87.0294 46.4281 87.0205 46.3465 87.0086 46.265C87.0057 46.244 87.0012 46.2242 86.9983 46.2045L86.9953 46.1874L86.9909 46.1637C86.9849 46.1256 86.9775 46.0874 86.9686 46.0493C86.9672 46.0414 86.9642 46.0309 86.9612 46.0203C86.9494 45.9677 86.9346 45.9177 86.9212 45.8691L86.9153 45.848C86.9094 45.8257 86.9034 45.8046 86.8975 45.7836C86.8709 45.7007 86.8427 45.6205 86.8116 45.5442C86.7657 45.4337 86.7123 45.3219 86.6457 45.2022C86.6383 45.1864 86.6309 45.172 86.622 45.1575C86.616 45.1483 86.6101 45.1364 86.6027 45.1259C86.5509 45.0391 86.4946 44.9536 86.4323 44.8681C86.4234 44.855 86.4146 44.8418 86.4057 44.83C86.376 44.7905 86.3449 44.751 86.3138 44.7129L83.1094 40.834Z" fill="#DDE0EF"/>
<path d="M78.2461 44.9766H80.2876L80.5142 47.9229L78.5009 48.2886L78.2461 44.9766Z" fill="#DDE0EF"/>
<path d="M78.4996 48.551C78.4359 48.551 78.3722 48.5326 78.3203 48.4971C78.2522 48.4511 78.2092 48.3814 78.2048 48.3051L77.95 44.9931C77.944 44.9207 77.9737 44.8484 78.0285 44.7958C78.0848 44.7431 78.1633 44.7129 78.2448 44.7129H80.2848C80.4403 44.7129 80.5692 44.8194 80.5811 44.9575L80.8078 47.9039C80.8181 48.0354 80.7174 48.1525 80.5722 48.1801L78.5589 48.5458C78.5396 48.5497 78.5189 48.551 78.4996 48.551ZM78.5618 45.239L78.7722 47.971L80.1989 47.7119L80.0092 45.2403H78.5618V45.239Z" fill="#DDE0EF"/>
<path d="M81.2812 44.9766H82.4264L82.6235 47.5388L81.4946 47.744L81.2812 44.9766Z" fill="#DDE0EF"/>
<path d="M81.4933 48.0065C81.4296 48.0065 81.3659 47.9881 81.314 47.9526C81.2459 47.9065 81.2029 47.8368 81.1985 47.7605L80.9851 44.9931C80.9792 44.9207 81.0088 44.8484 81.0636 44.7958C81.1199 44.7431 81.1985 44.7129 81.2799 44.7129H82.4251C82.5807 44.7129 82.7096 44.8194 82.7214 44.9575L82.9184 47.5198C82.9288 47.6513 82.8281 47.7684 82.6829 47.796L81.554 48.0012C81.5333 48.0052 81.5125 48.0065 81.4933 48.0065ZM81.597 45.239L81.7659 47.4264L82.3096 47.3278L82.1496 45.2403H81.597V45.239Z" fill="#DDE0EF"/>
<path d="M83.4219 44.9746H111.185L103.34 88.645H90.6797L88.7315 99.4886L88.4782 99.6754H87.0797C88.0797 99.1743 88.7389 98.2167 88.6411 97.2618L86.5774 76.9991H96.3952C96.8234 76.9991 97.2248 76.7018 97.29 76.3348C97.3567 75.9665 97.0619 75.6706 96.6337 75.6706H86.4426L85.8885 70.2251H97.613C98.0411 70.2251 98.4426 69.9278 98.5093 69.5595C98.5745 69.1925 98.2811 68.8953 97.853 68.8953H85.7537L85.1997 63.4498H98.8308C99.2589 63.4498 99.6604 63.1525 99.7271 62.7842C99.7922 62.4173 99.4989 62.12 99.0708 62.12H85.0767C85.0959 60.973 86.1685 59.876 87.5582 59.6222C89.0204 59.3552 90.13 58.1595 90.0352 56.9494L90.0145 56.6745H100.049C100.477 56.6745 100.878 56.3772 100.945 56.0089C101.01 55.642 100.717 55.3447 100.289 55.3447H89.9122L89.3878 48.5326C89.3078 47.4843 88.3522 46.7687 87.1493 46.7687C86.9626 46.7687 86.77 46.7858 86.5745 46.8213L83.93 47.3027L83.6085 47.3606L83.4219 44.9746Z" fill="#DDE0EF"/>
<path d="M88.4773 99.9405H87.0787C86.9439 99.9405 86.8269 99.8602 86.7928 99.7445C86.7587 99.6287 86.8165 99.5077 86.9336 99.4485C87.8624 98.9829 88.4299 98.1135 88.3454 97.2874L86.2817 77.0247C86.2743 76.9511 86.3024 76.8787 86.3587 76.8235C86.415 76.7695 86.4936 76.738 86.578 76.738H96.3958C96.6787 76.738 96.9558 76.5354 96.9987 76.2947C97.0165 76.1961 96.9928 76.1092 96.9291 76.0422C96.8624 75.9724 96.7573 75.9343 96.6343 75.9343H86.4432C86.2906 75.9343 86.1617 75.8304 86.1484 75.6949L85.5943 70.2494C85.5869 70.1758 85.615 70.1034 85.6713 70.0482C85.7276 69.9942 85.8061 69.9627 85.8906 69.9627H97.615C97.898 69.9627 98.175 69.7588 98.218 69.5181C98.2358 69.4208 98.2106 69.3313 98.1484 69.2656C98.0817 69.1958 97.9765 69.1577 97.855 69.1577H85.7558C85.6032 69.1577 85.4743 69.0538 85.461 68.9183L84.9069 63.4728C84.8995 63.3992 84.9276 63.3268 84.9839 63.2716C85.0402 63.2177 85.1187 63.1861 85.2032 63.1861H98.8343C99.1173 63.1861 99.3943 62.9822 99.4373 62.7415C99.455 62.6442 99.4298 62.5547 99.3676 62.489C99.301 62.4192 99.1958 62.3811 99.0743 62.3811H85.0802C85.0002 62.3811 84.9247 62.3535 84.8699 62.3022C84.8136 62.2522 84.7839 62.1838 84.7854 62.1141C84.8076 60.8237 85.975 59.6413 87.5039 59.3624C88.8239 59.1217 89.8299 58.0471 89.7454 56.9659L89.7247 56.691C89.7187 56.6186 89.7484 56.5463 89.8032 56.4937C89.8595 56.441 89.938 56.4108 90.0195 56.4108H100.054C100.337 56.4108 100.614 56.2069 100.657 55.9662C100.674 55.8689 100.649 55.7794 100.587 55.715C100.52 55.6453 100.415 55.6071 100.294 55.6071H89.9173C89.7617 55.6071 89.6328 55.5006 89.621 55.3625L89.0965 48.5504C89.0284 47.6559 88.2299 47.0325 87.1528 47.0325C86.9839 47.0325 86.8106 47.0482 86.6373 47.0798L83.6713 47.6204C83.5869 47.6362 83.501 47.6178 83.4328 47.5717C83.3647 47.5257 83.3217 47.456 83.3173 47.3797L83.1336 44.995C83.1276 44.9227 83.1573 44.8503 83.2121 44.7977C83.2684 44.7451 83.3469 44.7148 83.4284 44.7148H111.191C111.279 44.7148 111.36 44.749 111.417 44.8069C111.473 44.8648 111.498 44.9424 111.483 45.0187L103.639 88.6891C103.617 88.8167 103.492 88.9114 103.345 88.9114H90.938L89.0299 99.534C89.018 99.5972 88.9824 99.6537 88.9261 99.6945L88.6728 99.8813C88.6136 99.9181 88.5469 99.9405 88.4773 99.9405ZM87.9617 99.4143H88.3706L88.4565 99.3512L88.5736 98.6962C88.415 98.9553 88.2076 99.1986 87.9617 99.4143ZM86.901 77.2628L88.8995 96.8849L90.3869 88.6049C90.4091 88.4773 90.5336 88.3826 90.6802 88.3826H103.088L110.837 45.2383H83.738L83.8773 47.0417L86.5113 46.5616C86.7232 46.5234 86.938 46.5037 87.1454 46.5037C88.5261 46.5037 89.5913 47.3481 89.6802 48.5122L90.1854 55.0797H100.285C100.579 55.0797 100.851 55.1862 101.03 55.373C101.208 55.5571 101.28 55.7979 101.234 56.0491C101.145 56.5463 100.622 56.9369 100.046 56.9369H90.3291C90.4284 58.2694 89.2121 59.5886 87.615 59.8793C86.4817 60.0858 85.5617 60.9263 85.3958 61.8563H99.0669C99.3617 61.8563 99.6328 61.9628 99.8121 62.1496C99.9898 62.3337 100.062 62.5745 100.017 62.8257C99.9276 63.3229 99.4047 63.7135 98.8284 63.7135H85.5217L86.0224 68.6329H97.8506C98.1454 68.6329 98.4165 68.7394 98.5958 68.9262C98.7736 69.1103 98.8462 69.3511 98.8002 69.6023C98.7113 70.0995 98.1884 70.4901 97.6121 70.4901H86.2121L86.7128 75.4095H96.6343C96.9291 75.4095 97.2002 75.516 97.3795 75.7015C97.5558 75.8856 97.6284 76.1263 97.5839 76.3776C97.495 76.8748 96.9736 77.2641 96.3958 77.2641H86.901V77.2628Z" fill="#DDE0EF"/>
<path d="M100.286 55.3398C100.715 55.3398 101.009 55.6371 100.943 56.0041C100.876 56.3724 100.475 56.6696 100.046 56.6696H90.0124L89.9102 55.3398H100.286Z" fill="#B9BFDF"/>
<path d="M100.047 56.9347H90.0125C89.857 56.9347 89.7281 56.8282 89.7163 56.69L89.614 55.3602C89.6081 55.2879 89.6377 55.2156 89.6925 55.1629C89.7488 55.1103 89.8274 55.0801 89.9088 55.0801H100.284C100.578 55.0801 100.85 55.1866 101.029 55.3734C101.207 55.5575 101.279 55.7982 101.233 56.0495C101.144 56.544 100.623 56.9347 100.047 56.9347ZM90.2881 56.4086H100.045C100.328 56.4086 100.605 56.2047 100.648 55.964C100.666 55.8666 100.641 55.7772 100.578 55.7114C100.512 55.6417 100.407 55.6036 100.285 55.6036H90.2274L90.2881 56.4086Z" fill="#B9BFDF"/>
<path d="M99.0644 62.1191C99.4925 62.1191 99.7874 62.4164 99.7207 62.7834C99.654 63.1517 99.2525 63.4489 98.8244 63.4489H85.1933L85.0762 62.2941C85.0718 62.2362 85.0703 62.177 85.0703 62.1191H99.0644Z" fill="#B9BFDF"/>
<path d="M98.8268 63.7114H85.1957C85.0431 63.7114 84.9142 63.6075 84.9008 63.472L84.7838 62.3172C84.7779 62.2461 84.7764 62.1804 84.7779 62.1146C84.7808 61.9712 84.9127 61.8555 85.0742 61.8555H99.0683C99.3631 61.8555 99.6342 61.962 99.8134 62.1488C99.9912 62.3329 100.064 62.5736 100.018 62.8249C99.926 63.3221 99.4046 63.7114 98.8268 63.7114ZM85.4653 63.1853H98.8268C99.1097 63.1853 99.3868 62.9814 99.4297 62.7407C99.4475 62.6434 99.4223 62.5539 99.3601 62.4881C99.2934 62.4184 99.1883 62.3803 99.0668 62.3803H85.3853L85.4653 63.1853Z" fill="#B9BFDF"/>
<path d="M97.8493 68.8945C98.2774 68.8945 98.5722 69.1918 98.5056 69.5588C98.4389 69.9271 98.0374 70.2243 97.6093 70.2243H85.8848L85.75 68.8945H97.8493Z" fill="#B9BFDF"/>
<path d="M97.6084 70.4868H85.8839C85.7313 70.4868 85.6024 70.3829 85.5891 70.2474L85.4543 68.9176C85.4469 68.8439 85.475 68.7716 85.5313 68.7164C85.5876 68.6624 85.6661 68.6309 85.7506 68.6309H97.8498C98.1447 68.6309 98.4158 68.7374 98.595 68.9242C98.7728 69.1083 98.8454 69.349 98.7995 69.6003C98.7076 70.0975 98.1861 70.4868 97.6084 70.4868ZM86.155 69.9607H97.6084C97.8913 69.9607 98.1684 69.7568 98.2113 69.5161C98.2291 69.4187 98.2039 69.3293 98.1417 69.2635C98.075 69.1938 97.9698 69.1557 97.8484 69.1557H86.0735L86.155 69.9607Z" fill="#B9BFDF"/>
<path d="M96.6325 75.6719C97.0607 75.6719 97.3555 75.9678 97.2888 76.3361C97.2236 76.7031 96.8222 77.0004 96.394 77.0004H86.5762L86.4414 75.6719H96.6325Z" fill="#B9BFDF"/>
<path d="M96.3931 77.2628H86.5753C86.4227 77.2628 86.2939 77.1589 86.2805 77.0234L86.1457 75.695C86.1383 75.6213 86.1664 75.5489 86.2227 75.4937C86.279 75.4398 86.3575 75.4082 86.442 75.4082H96.6331C96.9279 75.4082 97.199 75.5147 97.3783 75.7002C97.5546 75.8844 97.6272 76.1251 97.5827 76.3763C97.4924 76.8735 96.9694 77.2628 96.3931 77.2628ZM86.8464 76.7367H96.3931C96.6761 76.7367 96.9531 76.5341 96.9961 76.2934C97.0138 76.1948 96.9901 76.108 96.9264 76.0409C96.8598 75.9712 96.7546 75.933 96.6316 75.933H86.765L86.8464 76.7367Z" fill="#B9BFDF"/>
<path d="M111.184 44.9746L114.387 48.8509L106.543 92.5226L103.34 88.645L111.184 44.9746Z" fill="#E9EAF5"/>
<path d="M106.542 92.7859C106.449 92.7859 106.36 92.7465 106.303 92.6781L103.1 88.8005C103.053 88.7439 103.034 88.6729 103.047 88.6032L110.892 44.9327C110.911 44.8275 110.998 44.7433 111.114 44.7183C111.229 44.6934 111.352 44.7328 111.422 44.8183L114.625 48.6959C114.672 48.7525 114.692 48.8235 114.678 48.8932L106.834 92.5636C106.815 92.6689 106.727 92.753 106.612 92.778C106.588 92.7833 106.564 92.7859 106.542 92.7859ZM103.652 88.5782L106.361 91.8586L114.075 48.9182L111.366 45.6378L103.652 88.5782Z" fill="#DDE0EF"/>
<path d="M103.338 88.6465L88.7305 99.4901L90.6771 88.6465H103.338Z" fill="#B9BFDF"/>
<path d="M88.7306 99.7526C88.6802 99.7526 88.6298 99.7407 88.5839 99.7184C88.4758 99.6644 88.418 99.5566 88.4373 99.4487L90.3854 88.6051C90.4076 88.4775 90.5321 88.3828 90.6787 88.3828H103.339C103.464 88.3828 103.575 88.4525 103.618 88.5564C103.661 88.6603 103.625 88.7774 103.529 88.8484L88.9217 99.6921C88.8654 99.7328 88.7973 99.7526 88.7306 99.7526ZM90.9306 88.9089L89.1469 98.8371L102.522 88.9089H90.9306Z" fill="#DDE0EF"/>
<path d="M103.338 88.6445L106.541 92.5221L91.9319 103.366L88.7305 99.4881L103.338 88.6445Z" fill="#B9BFDF"/>
<path d="M91.9322 103.63C91.9204 103.63 91.9085 103.63 91.8967 103.628C91.8152 103.619 91.7426 103.581 91.6937 103.523L88.4907 99.6454C88.3989 99.5336 88.4196 99.3771 88.5396 99.2877L103.147 88.444C103.209 88.398 103.292 88.3756 103.372 88.3849C103.454 88.3941 103.526 88.4322 103.575 88.4901L106.778 92.3677C106.87 92.4795 106.849 92.636 106.729 92.7255L92.1233 103.568C92.07 103.609 92.0018 103.63 91.9322 103.63ZM89.1337 99.5323L91.9855 102.984L106.138 92.4782L103.286 89.0267L89.1337 99.5323Z" fill="#DDE0EF"/>
<path d="M88.7275 99.4902L91.9289 103.368L88.4727 99.6783L88.7275 99.4902Z" fill="#E9EAF5"/>
<path d="M91.9321 103.63C91.8477 103.63 91.7632 103.597 91.704 103.536L88.2477 99.8461C88.1973 99.7922 88.1736 99.7238 88.181 99.6541C88.1884 99.5844 88.2269 99.5199 88.2862 99.4765L88.5395 99.2897C88.6018 99.2437 88.6832 99.2213 88.7647 99.2306C88.8462 99.2398 88.9188 99.2779 88.9677 99.3358L92.1706 103.212C92.2655 103.326 92.2403 103.487 92.1144 103.575C92.0595 103.612 91.9958 103.63 91.9321 103.63Z" fill="#DDE0EF"/>
<path d="M88.4766 99.6777L91.9329 103.367L90.2811 103.554L87.0781 99.6777H88.4766Z" fill="#E9EAF5"/>
<path d="M90.2801 103.817C90.1868 103.817 90.0979 103.778 90.0416 103.709L86.8387 99.8317C86.772 99.7515 86.7631 99.6462 86.8135 99.5568C86.8638 99.4687 86.9661 99.4121 87.0772 99.4121H88.4757C88.5631 99.4121 88.6476 99.4463 88.7038 99.5068L92.1601 103.196C92.2298 103.27 92.2476 103.371 92.2076 103.461C92.1676 103.55 92.0772 103.613 91.969 103.625L90.3157 103.812C90.3053 103.816 90.292 103.817 90.2801 103.817ZM87.6624 99.9409L90.4164 103.274L91.3601 103.167L88.3379 99.9409H87.6624Z" fill="#DDE0EF"/>
<path d="M87.5242 99.4062C87.4576 99.4536 87.388 99.4996 87.3168 99.543C87.2428 99.5878 87.1657 99.6312 87.0872 99.6706C87.0828 99.6733 87.0798 99.6746 87.0754 99.6772C86.9924 99.7193 86.908 99.7574 86.8205 99.7916C86.7094 99.8364 86.5939 99.8758 86.4768 99.9087C86.3746 99.9376 86.2709 99.9613 86.1657 99.9811L52.9998 106.017C52.8043 106.053 52.6117 106.07 52.425 106.07C51.6546 106.07 50.9835 105.776 50.582 105.288L53.785 109.165C54.188 109.653 54.8576 109.946 55.628 109.946C55.8146 109.946 56.0072 109.929 56.2028 109.893L89.3687 103.857C89.4739 103.838 89.5791 103.814 89.6798 103.785C89.7968 103.752 89.9124 103.713 90.0235 103.668C90.1109 103.632 90.1954 103.594 90.2783 103.554C90.2828 103.551 90.2857 103.55 90.2902 103.547C90.3687 103.507 90.4457 103.464 90.5198 103.419C90.5909 103.376 90.6605 103.33 90.7272 103.283L87.5242 99.4062Z" fill="#1E2F97"/>
<path d="M55.6282 110.209C54.7719 110.209 54.0119 109.885 53.5453 109.321L50.3423 105.443C50.246 105.326 50.2742 105.162 50.406 105.075C50.5379 104.989 50.723 105.014 50.8208 105.131C51.1749 105.559 51.7586 105.805 52.4253 105.805C52.5942 105.805 52.7675 105.789 52.9408 105.758L86.1067 99.7215C86.2016 99.7044 86.2964 99.682 86.3882 99.6557C86.4934 99.6255 86.5986 99.59 86.6993 99.5492C86.7779 99.5176 86.8549 99.4821 86.9305 99.4453C87.0119 99.4045 87.0816 99.365 87.1497 99.3243C87.2134 99.2848 87.2771 99.244 87.3379 99.1993C87.4016 99.1546 87.4816 99.1335 87.563 99.1428C87.643 99.152 87.7156 99.1901 87.7645 99.248L90.9675 103.124C91.0608 103.237 91.0386 103.397 90.9156 103.485C90.843 103.537 90.7675 103.587 90.6904 103.635C90.609 103.685 90.5245 103.731 90.4401 103.774L90.4268 103.781C90.3364 103.825 90.243 103.867 90.1482 103.906C90.0253 103.954 89.8993 103.998 89.7719 104.033C89.6593 104.065 89.5453 104.091 89.4297 104.112L56.2638 110.148C56.0505 110.189 55.8371 110.209 55.6282 110.209ZM51.7542 106.261L54.0238 109.009C54.3779 109.437 54.9616 109.683 55.6282 109.683C55.7971 109.683 55.9705 109.667 56.1438 109.635L89.3097 103.599C89.4045 103.582 89.4993 103.56 89.5912 103.533C89.6964 103.504 89.8016 103.468 89.9023 103.427C89.9808 103.395 90.0593 103.36 90.1334 103.323C90.1986 103.29 90.2579 103.258 90.3127 103.226L87.4608 99.7728C87.3867 99.8162 87.3112 99.8583 87.2342 99.8978C87.2327 99.8978 87.2208 99.9043 87.2193 99.9056C87.1304 99.9504 87.0371 99.9925 86.9423 100.031C86.8208 100.079 86.6934 100.123 86.566 100.158C86.4534 100.19 86.3393 100.216 86.2238 100.237L53.0579 106.273C52.6119 106.355 52.1616 106.349 51.7542 106.261Z" fill="#DDE0EF"/>
<path d="M88.6404 97.2633C88.7382 98.2182 88.079 99.1758 87.079 99.6769C86.799 99.8176 86.4923 99.9215 86.1693 99.9807L53.0034 106.017C52.8079 106.052 52.6153 106.069 52.4286 106.069C51.239 106.069 50.2908 105.371 50.1916 104.338L45.6227 56.4945C45.5293 55.2844 46.639 54.0861 48.1012 53.8204L61.8256 51.3226L75.4138 48.8498L76.0197 56.7352C76.0671 57.335 76.3664 57.844 76.8241 58.2005C77.2834 58.5556 77.9027 58.7608 78.5945 58.7621C78.8093 58.7621 79.0301 58.7411 79.2553 58.7003C79.9797 58.5688 80.6345 58.2347 81.1308 57.7874C81.6256 57.3402 81.9678 56.7773 82.0745 56.1827C82.1071 55.9999 82.1175 55.8131 82.1027 55.6277L81.4967 47.7436L82.6256 47.5384L83.0004 52.4261C83.0153 52.6208 83.193 52.7523 83.4167 52.7523C83.793 52.6932 83.999 52.4709 83.9812 52.2473L83.6049 47.3595L83.9264 47.3016L86.5708 46.8202C86.7664 46.7847 86.959 46.7676 87.1456 46.7676C88.3501 46.7676 89.3056 47.4831 89.3841 48.5314L89.9086 55.3436L90.0108 56.6734L90.0316 56.9483C90.1249 58.1584 89.0153 59.3553 87.5545 59.621C86.1649 59.8749 85.0923 60.9706 85.073 62.1188C85.0715 62.1767 85.073 62.2359 85.079 62.2938L85.196 63.4486L85.7501 68.8941L85.8849 70.2239L86.439 75.6694L86.5738 76.9979L88.6404 97.2633Z" fill="#1E2F97"/>
<path d="M52.4272 106.332C51.0687 106.332 50.005 105.503 49.8954 104.36L45.3265 56.5162C45.2228 55.1772 46.4405 53.854 48.0405 53.562L75.3531 48.5927C75.4376 48.5769 75.5235 48.5953 75.5917 48.6413C75.6598 48.6874 75.7028 48.7571 75.7072 48.8334L76.3131 56.7188C76.3531 57.2265 76.6035 57.6829 77.0168 58.0039C77.4287 58.3222 77.9887 58.4984 78.5931 58.4998C78.7843 58.4998 78.9872 58.4813 79.1946 58.4432C79.8331 58.3274 80.445 58.0289 80.9176 57.604C81.3798 57.187 81.685 56.6675 81.7798 56.1427C81.8094 55.9743 81.8183 55.8086 81.805 55.6481L81.1991 47.7614C81.1887 47.6298 81.2894 47.5128 81.4346 47.4851L82.5635 47.28C82.6465 47.2642 82.7339 47.2826 82.802 47.3286C82.8702 47.3747 82.9131 47.4444 82.9176 47.5207L83.2924 52.4084C83.2968 52.4689 83.3531 52.4847 83.3917 52.4887C83.5917 52.4505 83.6894 52.3493 83.682 52.2664L83.3057 47.3786C83.2954 47.2471 83.3961 47.13 83.5413 47.1024L86.5072 46.5618C86.7205 46.5236 86.9339 46.5039 87.1413 46.5039C88.522 46.5039 89.5872 47.3483 89.6761 48.5124L90.3235 56.9306C90.4272 58.2643 89.2094 59.5875 87.6094 59.8795C86.368 60.1058 85.3828 61.091 85.365 62.1235C85.3635 62.1748 85.365 62.2248 85.3694 62.2761L88.9294 97.2403C89.0346 98.2689 88.3472 99.3409 87.2183 99.9065C86.9042 100.064 86.5694 100.176 86.2213 100.239L53.0554 106.275C52.8494 106.312 52.6361 106.332 52.4272 106.332ZM75.1383 49.1688L48.1591 54.0776C46.8391 54.3183 45.8331 55.3943 45.9176 56.4768L50.4865 104.317C50.5709 105.194 51.368 105.807 52.4272 105.807C52.5961 105.807 52.7694 105.791 52.9428 105.76L86.1087 99.7236C86.3946 99.671 86.6717 99.579 86.9324 99.4487C87.8613 98.9831 88.4287 98.115 88.3443 97.2876L84.7828 62.3182C84.7768 62.2471 84.7754 62.1814 84.7768 62.1156C84.7991 60.8253 85.968 59.6428 87.4954 59.3639C88.8154 59.1232 89.8213 58.0486 89.7368 56.9674L89.0894 48.5492C89.0213 47.6548 88.2228 47.0314 87.1457 47.0314C86.9768 47.0314 86.8035 47.0471 86.6302 47.0787L83.9176 47.5733L84.2761 52.2309C84.3057 52.6057 83.9665 52.9346 83.4672 53.0122C83.4509 53.0148 83.4331 53.0161 83.4154 53.0161C83.0287 53.0161 82.728 52.7754 82.7028 52.444L82.3502 47.8561L81.8065 47.9547L82.3946 55.61C82.4109 55.8086 82.4006 56.0164 82.3635 56.2242C82.2494 56.8556 81.8865 57.4764 81.3383 57.971C80.7843 58.4708 80.0642 58.8207 79.3117 58.9575C79.0642 59.0022 78.8213 59.0246 78.5917 59.0246C77.8435 59.0233 77.1457 58.801 76.6257 58.3985C76.0924 57.9841 75.7709 57.4001 75.7205 56.753L75.1383 49.1688Z" fill="#DDE0EF"/>
<path d="M78.5926 59.0244C77.8459 59.0231 77.1481 58.8008 76.6281 58.3983C76.0948 57.984 75.7733 57.3999 75.7229 56.7528L74.7555 44.1743C74.7348 43.9086 74.7481 43.6363 74.797 43.3666C74.9466 42.5327 75.4266 41.7146 76.1496 41.0635C76.88 40.4032 77.8311 39.9402 78.8281 39.7587C79.1481 39.7008 79.4666 39.6719 79.7763 39.6719C80.757 39.6719 81.674 39.9639 82.357 40.4926C83.0563 41.0346 83.477 41.8001 83.5392 42.6472L84.277 52.2281C84.3051 52.5845 84 52.9226 83.5822 52.9988C83.5259 53.008 83.4711 53.0133 83.4177 53.0133C83.0311 53.0133 82.7318 52.7726 82.7052 52.4411L81.9689 42.8602C81.9274 42.3302 81.6785 41.8737 81.2474 41.5397C80.8222 41.2095 80.2474 41.028 79.6266 41.028C79.4266 41.028 79.2192 41.0477 79.0089 41.0859C78.3437 41.2069 77.7318 41.5055 77.24 41.9487C76.7659 42.3762 76.4518 42.9089 76.3555 43.4482C76.3244 43.6218 76.3155 43.7941 76.3289 43.9572L77.2963 56.5358C77.3214 56.862 77.474 57.1435 77.7392 57.35C78.0029 57.5525 78.36 57.6643 78.7437 57.6643C78.8696 57.6643 79.0014 57.6525 79.1333 57.6288C79.554 57.5512 79.9407 57.3618 80.2518 57.083C80.5496 56.8133 80.7481 56.4779 80.8089 56.1399C80.8281 56.0359 80.834 55.9281 80.8266 55.8202L79.9022 43.8139C79.8918 43.6902 79.837 43.5863 79.7363 43.5087C79.6355 43.4311 79.4963 43.3864 79.3466 43.3864C79.2933 43.3877 79.237 43.393 79.1837 43.4022C79.0089 43.435 78.8474 43.514 78.7185 43.631C78.5926 43.7442 78.5111 43.8809 78.4859 44.0177C78.4785 44.0559 78.477 44.0993 78.48 44.1427L79.1037 52.2504C79.1318 52.6069 78.8252 52.9449 78.4089 53.0212C78.354 53.0317 78.2977 53.037 78.2429 53.037C77.8563 53.037 77.5585 52.7963 77.5318 52.4648L76.9081 44.3584C76.8977 44.2229 76.9052 44.0809 76.9303 43.9349C77.0074 43.5034 77.2563 43.0799 77.6281 42.7445C78 42.4065 78.4889 42.1684 79.0029 42.0737C79.1733 42.0447 79.3377 42.029 79.4948 42.029C80.0074 42.029 80.4859 42.1828 80.8459 42.4604C81.2163 42.7458 81.4385 43.1496 81.4726 43.5968L82.3955 55.6058C82.4118 55.8044 82.4014 56.0123 82.3644 56.2201C82.2518 56.8515 81.8874 57.4723 81.3392 57.9669C80.7852 58.4654 80.0666 58.8166 79.3126 58.9534C79.0666 59.002 78.8237 59.0244 78.5926 59.0244Z" fill="#B9BFDF"/>
<path d="M79.7748 39.9363C80.7081 39.9363 81.5422 40.2125 82.1614 40.6926C82.7792 41.1714 83.1837 41.8554 83.2429 42.6669L83.4207 44.9766L83.6044 47.3613L83.9807 52.2491C83.9985 52.4714 83.7926 52.695 83.5214 52.745C83.4859 52.7516 83.4503 52.7542 83.4163 52.7542C83.1926 52.7542 83.0148 52.6227 83 52.428L82.6237 47.5402L82.4266 44.978L82.2622 42.8471C82.2148 42.2276 81.9111 41.7107 81.44 41.3463C80.9689 40.9807 80.3318 40.7702 79.6251 40.7702C79.4074 40.7702 79.1792 40.7913 78.9481 40.8333C78.2014 40.9701 77.5377 41.3095 77.0266 41.7685C76.517 42.2276 76.1689 42.805 76.0607 43.4114C76.0266 43.5982 76.0148 43.7902 76.0311 43.9809L76.1081 44.978L76.3926 48.6741L76.9985 56.5582C77.0296 56.9686 77.2311 57.3092 77.5422 57.5512C77.8548 57.792 78.2755 57.9314 78.7422 57.9314C78.8874 57.9314 79.0385 57.9182 79.1896 57.8906C79.6844 57.7998 80.1229 57.5749 80.4607 57.2711C80.797 56.9672 81.0281 56.5858 81.0992 56.1846C81.1214 56.061 81.1288 55.9347 81.12 55.8071L80.5126 47.923L80.2859 44.9766L80.1955 43.7994C80.1792 43.5969 80.0814 43.4324 79.9289 43.3141C79.7748 43.1957 79.5703 43.1273 79.3437 43.1273C79.2711 43.1286 79.1985 43.1352 79.1229 43.1483C78.88 43.1931 78.6696 43.3009 78.5037 43.4509C78.3392 43.5995 78.2251 43.7863 78.1896 43.9809C78.1792 44.0414 78.1763 44.1033 78.1807 44.1651L78.2429 44.978L78.4977 48.29L78.8044 52.2728C78.8222 52.4977 78.6163 52.7187 78.3451 52.7687C78.3081 52.7753 78.2725 52.7779 78.2385 52.7779C78.0148 52.7779 77.8385 52.645 77.8237 52.4504L77.517 48.4675L77.2488 44.9766L77.2 44.344C77.1896 44.223 77.1985 44.1006 77.2192 43.9809C77.2888 43.5929 77.5126 43.2246 77.8355 42.9339C78.157 42.6419 78.5866 42.4236 79.0592 42.3368C79.2059 42.3118 79.3496 42.2973 79.4903 42.2973C79.9437 42.2973 80.3466 42.4315 80.6459 42.6643C80.9466 42.8958 81.1422 43.2286 81.1718 43.6205L81.2755 44.978L81.4888 47.7454L82.0948 55.6295C82.1111 55.815 82.0992 56.0018 82.0666 56.1846C81.96 56.7791 81.6177 57.3408 81.1229 57.7893C80.6266 58.2365 79.9718 58.5706 79.2474 58.7022C79.0222 58.7429 78.8014 58.764 78.5866 58.764C77.8948 58.7627 77.274 58.5575 76.8163 58.2023C76.357 57.8459 76.0592 57.3368 76.0118 56.7371L75.4118 48.8503L75.114 44.9753L75.0518 44.1572C75.0326 43.9073 75.0459 43.6561 75.0903 43.4088C75.234 42.609 75.6933 41.8514 76.3614 41.249C77.0296 40.6453 77.9111 40.1954 78.8874 40.0178C79.1881 39.9626 79.4859 39.9363 79.7748 39.9363ZM79.7748 39.4102C79.4459 39.4102 79.1081 39.4404 78.7688 39.5009C77.7126 39.693 76.7081 40.1823 75.9363 40.8794C75.1718 41.5686 74.6622 42.4367 74.5037 43.3246C74.4518 43.614 74.437 43.906 74.4592 44.1927L74.5214 45.0108L74.8192 48.8858L75.4251 56.7713C75.4829 57.4894 75.84 58.1366 76.4311 58.5969C77.0059 59.0415 77.7733 59.2862 78.5911 59.2888C78.8429 59.2888 79.1051 59.2651 79.3703 59.2165C80.1822 59.0691 80.9555 58.693 81.5511 58.1576C82.1422 57.6236 82.5348 56.9515 82.6577 56.2675C82.6992 56.0386 82.7096 55.8111 82.6918 55.5901L82.4711 52.7161C82.6148 53.0502 82.9807 53.279 83.4163 53.279C83.4888 53.279 83.5629 53.2725 83.637 53.2593C84.2014 53.1567 84.6103 52.6963 84.5718 52.211L84.1955 47.3245L84.0118 44.9398L83.834 42.6301C83.7659 41.7133 83.3096 40.8833 82.5511 40.2954C81.8133 39.7245 80.8266 39.4102 79.7748 39.4102ZM76.6251 43.977L76.6222 43.9428C76.6103 43.7955 76.6177 43.6455 76.6459 43.4916C76.7333 43.005 77.0192 42.5236 77.4489 42.1342C77.8992 41.7291 78.4592 41.4568 79.0666 41.345C79.2563 41.3108 79.4444 41.2924 79.6251 41.2924C80.1733 41.2924 80.68 41.4516 81.0503 41.7383C81.4222 42.0264 81.637 42.421 81.6711 42.8787L81.6948 43.1957C81.5851 42.834 81.36 42.5104 81.0385 42.2631C80.6266 41.9435 80.0785 41.7672 79.4948 41.7672C79.3185 41.7672 79.1348 41.783 78.9496 41.8159C78.3718 41.9224 77.8296 42.1855 77.4163 42.5617C77.0014 42.9353 76.7259 43.4088 76.6385 43.8941C76.634 43.9231 76.6296 43.9494 76.6251 43.977ZM78.2429 53.3014C78.3185 53.3014 78.394 53.2948 78.4681 53.2804C79.0281 53.1778 79.437 52.7187 79.4 52.2333L79.0933 48.2505L78.8385 44.9385L78.7763 44.1256C78.7748 44.1033 78.7748 44.0796 78.7792 44.0599C78.794 43.9783 78.8488 43.8889 78.9288 43.8165C79.0177 43.735 79.1274 43.6824 79.2474 43.66C79.277 43.6547 79.3126 43.6508 79.3526 43.6508C79.4296 43.6521 79.4948 43.6718 79.5437 43.7087C79.5822 43.7389 79.6029 43.7784 79.6074 43.8336L79.6977 45.0095L79.9244 47.9559L80.5318 55.84C80.5377 55.9242 80.5333 56.0123 80.517 56.0991C80.4651 56.3832 80.2963 56.6687 80.04 56.9002C79.7718 57.1422 79.4355 57.3053 79.0711 57.3737C78.9629 57.3934 78.8503 57.4026 78.7437 57.4026C78.4311 57.4026 78.1422 57.3132 77.9318 57.1514C77.7303 56.9935 77.6118 56.7752 77.5911 56.52L77.3007 52.7411C77.4429 53.0738 77.8088 53.3014 78.2429 53.3014Z" fill="#DDE0EF"/>
<path d="M121.803 43.2812L122.095 44.9031C122.271 45.8751 123.022 46.6367 124.104 46.9366L125.91 47.4364L123.925 47.9362C122.736 48.2361 121.711 48.9977 121.185 49.9697L120.31 51.5915L120.016 49.9697C119.84 48.9977 119.089 48.2361 118.008 47.9362L116.203 47.4364L118.187 46.9366C119.375 46.6367 120.4 45.8751 120.926 44.9031L121.803 43.2812Z" fill="#1E2F97"/>
<path d="M59.6761 36.9082L59.8998 38.1512C60.0347 38.897 60.611 39.481 61.4406 39.7099L62.8243 40.0926L61.3028 40.4767C60.3917 40.7056 59.605 41.2896 59.2021 42.0341L58.531 43.2784L58.3073 42.0341C58.1724 41.2883 57.5961 40.7056 56.7665 40.4767L55.3828 40.0926L56.9043 39.7099C57.8154 39.481 58.6021 38.8957 59.005 38.1512L59.6761 36.9082Z" fill="#1E2F97"/>
<path d="M97.4722 79.9395L97.5966 80.6326C97.6722 81.047 97.9937 81.3732 98.4559 81.5008L99.2263 81.7138L98.3789 81.9269C97.8707 82.0558 97.4322 82.3807 97.207 82.795L96.8322 83.4882L96.7078 82.795C96.6322 82.3807 96.3122 82.0545 95.85 81.9269L95.0781 81.7138L95.927 81.5008C96.4352 81.3719 96.8722 81.047 97.0974 80.6326L97.4722 79.9395Z" fill="#1E2F97"/>
<path d="M41.3364 89.2266L41.4609 89.9197C41.5364 90.3354 41.8579 90.6603 42.3201 90.7879L43.0905 91.0009L42.2431 91.214C41.7349 91.3429 41.2964 91.6678 41.0712 92.0835L40.6979 92.7766L40.5735 92.0835C40.4994 91.6678 40.1779 91.3429 39.7157 91.214L38.9453 91.0009L39.7927 90.7879C40.3009 90.6603 40.7394 90.3354 40.9631 89.9197L41.3364 89.2266Z" fill="#1E2F97"/>
</svg>
