<svg width="98" height="98" viewBox="0 0 98 98" fill="none" xmlns="http://www.w3.org/2000/svg">
<path d="M80.7021 32.0402C80.7021 32.0402 79.4188 27.6961 81.8453 25.6091C84.822 23.0489 88.779 27.0493 92.2386 24.8689C96.2265 22.3556 94.4633 15.7467 94.4633 15.7467" stroke="#FB807E" stroke-width="2.12414"/>
<path d="M35.6514 20.1169C35.6514 20.1169 37.4263 14.3805 35.4004 12.0175C32.915 9.11857 28.6552 14.7595 25.6639 12.4102C22.2159 9.70205 24.7372 0.999218 24.7372 0.999218" stroke="#A3C755" stroke-width="2.12414"/>
<path d="M89.7686 97.2205C89.7686 97.2205 91.5293 91.4792 89.2709 89.0372C86.5004 86.0415 82.0479 91.617 78.7453 89.162C74.9383 86.3319 77.424 77.617 77.424 77.617" stroke="#E5D333" stroke-width="2.12414"/>
<path d="M3.99075 88.5809C3.99075 88.5809 3.01344 85.1556 5.43417 83.3408C8.40387 81.1145 18.388 79.7266 15.347 82.167C5.73925 89.8774 10.308 73.7619 17.9673 74.7005" stroke="#FB807E" stroke-width="2.12414"/>
<path d="M95.0433 47.9904C95.0433 49.5546 93.7753 50.8226 92.2111 50.8226C90.6469 50.8226 89.3789 49.5546 89.3789 47.9904C89.3789 46.4262 90.6469 45.1582 92.2111 45.1582C93.7753 45.1582 95.0433 46.4262 95.0433 47.9904ZM90.3845 47.9904C90.3845 48.9992 91.2023 49.817 92.2111 49.817C93.2199 49.817 94.0377 48.9992 94.0377 47.9904C94.0377 46.9816 93.2199 46.1638 92.2111 46.1638C91.2023 46.1638 90.3845 46.9816 90.3845 47.9904Z" fill="#AB2FE6"/>
<path d="M95.0433 47.9904C95.0433 49.5546 93.7753 50.8226 92.2111 50.8226C90.6469 50.8226 89.3789 49.5546 89.3789 47.9904C89.3789 46.4262 90.6469 45.1582 92.2111 45.1582C93.7753 45.1582 95.0433 46.4262 95.0433 47.9904ZM90.3845 47.9904C90.3845 48.9992 91.2023 49.817 92.2111 49.817C93.2199 49.817 94.0377 48.9992 94.0377 47.9904C94.0377 46.9816 93.2199 46.1638 92.2111 46.1638C91.2023 46.1638 90.3845 46.9816 90.3845 47.9904Z" fill="#AB2FE6"/>
<path d="M5.66437 57.4025C5.66437 58.9667 4.39636 60.2347 2.83218 60.2347C1.26801 60.2347 0 58.9667 0 57.4025C0 55.8383 1.26801 54.5703 2.83218 54.5703C4.39636 54.5703 5.66437 55.8383 5.66437 57.4025ZM1.00555 57.4025C1.00555 58.4113 1.82336 59.2291 2.83218 59.2291C3.84101 59.2291 4.65882 58.4113 4.65882 57.4025C4.65882 56.3937 3.84101 55.5759 2.83218 55.5759C1.82336 55.5759 1.00555 56.3937 1.00555 57.4025Z" fill="#E6DF2F"/>
<path d="M20.7466 22.0002C20.7466 24.3465 18.8445 26.2485 16.4983 26.2485C14.152 26.2485 12.25 24.3465 12.25 22.0002C12.25 19.654 14.152 17.752 16.4983 17.752C18.8445 17.752 20.7466 19.654 20.7466 22.0002ZM14.4887 22.0002C14.4887 23.1101 15.3884 24.0098 16.4983 24.0098C17.6081 24.0098 18.5078 23.1101 18.5078 22.0002C18.5078 20.8904 17.6081 19.9907 16.4983 19.9907C15.3884 19.9907 14.4887 20.8904 14.4887 22.0002Z" fill="#FFD7C1"/>
<circle cx="10.2872" cy="41.8243" r="1.41609" fill="#067A6F"/>
<circle cx="69.4494" cy="89.0627" r="2.83218" fill="#5465FF"/>
<circle cx="69.8986" cy="15.8283" r="2.83218" fill="#5465FF"/>
<circle cx="59.0137" cy="91.1876" r="1.41609" fill="#E6702F"/>
<circle cx="59.463" cy="17.9512" r="1.41609" fill="#E6702F"/>
<circle cx="87.0528" cy="43.3692" r="1.41609" fill="#2FDBE6"/>
<circle cx="8.87312" cy="51.4747" r="1.41609" fill="#E62FB3"/>
<rect x="20.7812" y="26.248" width="56.6437" height="56.6437" rx="28.3218" fill="#02BA6D"/>
<rect x="17.9491" y="23.4159" width="62.3081" height="62.3081" rx="31.154" stroke="#00A82D" stroke-opacity="0.33" stroke-width="5.66437"/>
<path d="M40.2539 54.5704L46.1543 60.7658L57.9551 48.375" stroke="white" stroke-width="2.83218" stroke-linecap="round" stroke-linejoin="round"/>
</svg>
